<mxfile host="app.diagrams.net" agent="Mozilla/5.0 (X11; Linux x86_64) AppleWebKit/537.36 (KHTML, like Gecko) Chrome/131.0.0.0 Safari/537.36" version="24.9.2">
  <diagram id="R2lEEEUBdFMjLlhIrx00" name="Page-1">
    <mxGraphModel dx="928" dy="465" grid="1" gridSize="10" guides="1" tooltips="1" connect="1" arrows="1" fold="1" page="1" pageScale="1" pageWidth="850" pageHeight="1100" math="0" shadow="0" extFonts="Permanent Marker^https://fonts.googleapis.com/css?family=Permanent+Marker">
      <root>
        <mxCell id="0" />
        <mxCell id="1" parent="0" />
        <mxCell id="BuEpBqLIDgKgEN5BL7GY-9" style="edgeStyle=orthogonalEdgeStyle;rounded=0;orthogonalLoop=1;jettySize=auto;html=1;endArrow=oval;endFill=1;targetPerimeterSpacing=6;endSize=12;startArrow=ERone;startFill=0;startSize=12;" parent="1" target="BuEpBqLIDgKgEN5BL7GY-6" edge="1">
          <mxGeometry relative="1" as="geometry">
            <mxPoint x="480.27" y="630" as="sourcePoint" />
            <mxPoint x="481" y="420" as="targetPoint" />
          </mxGeometry>
        </mxCell>
        <mxCell id="C-vyLk0tnHw3VtMMgP7b-2" value="Oferta" style="shape=table;startSize=30;container=1;collapsible=1;childLayout=tableLayout;fixedRows=1;rowLines=0;fontStyle=1;align=center;resizeLast=1;" parent="1" vertex="1">
          <mxGeometry x="355" y="630" width="250" height="190" as="geometry" />
        </mxCell>
        <mxCell id="C-vyLk0tnHw3VtMMgP7b-3" value="" style="shape=partialRectangle;collapsible=0;dropTarget=0;pointerEvents=0;fillColor=none;points=[[0,0.5],[1,0.5]];portConstraint=eastwest;top=0;left=0;right=0;bottom=1;" parent="C-vyLk0tnHw3VtMMgP7b-2" vertex="1">
          <mxGeometry y="30" width="250" height="30" as="geometry" />
        </mxCell>
        <mxCell id="C-vyLk0tnHw3VtMMgP7b-4" value="PK" style="shape=partialRectangle;overflow=hidden;connectable=0;fillColor=none;top=0;left=0;bottom=0;right=0;fontStyle=1;" parent="C-vyLk0tnHw3VtMMgP7b-3" vertex="1">
          <mxGeometry width="30" height="30" as="geometry">
            <mxRectangle width="30" height="30" as="alternateBounds" />
          </mxGeometry>
        </mxCell>
        <mxCell id="C-vyLk0tnHw3VtMMgP7b-5" value="id_Experiencia int(4) NOT NULL " style="shape=partialRectangle;overflow=hidden;connectable=0;fillColor=none;top=0;left=0;bottom=0;right=0;align=left;spacingLeft=6;fontStyle=5;" parent="C-vyLk0tnHw3VtMMgP7b-3" vertex="1">
          <mxGeometry x="30" width="220" height="30" as="geometry">
            <mxRectangle width="220" height="30" as="alternateBounds" />
          </mxGeometry>
        </mxCell>
        <mxCell id="C-vyLk0tnHw3VtMMgP7b-6" value="" style="shape=partialRectangle;collapsible=0;dropTarget=0;pointerEvents=0;fillColor=none;points=[[0,0.5],[1,0.5]];portConstraint=eastwest;top=0;left=0;right=0;bottom=0;" parent="C-vyLk0tnHw3VtMMgP7b-2" vertex="1">
          <mxGeometry y="60" width="250" height="110" as="geometry" />
        </mxCell>
        <mxCell id="C-vyLk0tnHw3VtMMgP7b-7" value="" style="shape=partialRectangle;overflow=hidden;connectable=0;fillColor=none;top=0;left=0;bottom=0;right=0;" parent="C-vyLk0tnHw3VtMMgP7b-6" vertex="1">
          <mxGeometry width="30" height="110" as="geometry">
            <mxRectangle width="30" height="110" as="alternateBounds" />
          </mxGeometry>
        </mxCell>
        <mxCell id="C-vyLk0tnHw3VtMMgP7b-8" value="fecha_hora date NOT NULL&#xa;descripcion char(120) &#xa;modalidad char(10) NOT NULL&#xa;precio float(4,2) NOT NULL&#xa;ID_Categoria int(4) NOT NULL&#xa;N_Personas int(2) Default 1" style="shape=partialRectangle;overflow=hidden;connectable=0;fillColor=none;top=0;left=0;bottom=0;right=0;align=left;spacingLeft=6;" parent="C-vyLk0tnHw3VtMMgP7b-6" vertex="1">
          <mxGeometry x="30" width="220" height="110" as="geometry">
            <mxRectangle width="220" height="110" as="alternateBounds" />
          </mxGeometry>
        </mxCell>
        <mxCell id="C-vyLk0tnHw3VtMMgP7b-9" value="" style="shape=partialRectangle;collapsible=0;dropTarget=0;pointerEvents=0;fillColor=none;points=[[0,0.5],[1,0.5]];portConstraint=eastwest;top=0;left=0;right=0;bottom=0;" parent="C-vyLk0tnHw3VtMMgP7b-2" vertex="1">
          <mxGeometry y="170" width="250" height="20" as="geometry" />
        </mxCell>
        <mxCell id="C-vyLk0tnHw3VtMMgP7b-10" value="" style="shape=partialRectangle;overflow=hidden;connectable=0;fillColor=none;top=0;left=0;bottom=0;right=0;" parent="C-vyLk0tnHw3VtMMgP7b-9" vertex="1">
          <mxGeometry width="30" height="20" as="geometry">
            <mxRectangle width="30" height="20" as="alternateBounds" />
          </mxGeometry>
        </mxCell>
        <mxCell id="C-vyLk0tnHw3VtMMgP7b-11" value="" style="shape=partialRectangle;overflow=hidden;connectable=0;fillColor=none;top=0;left=0;bottom=0;right=0;align=left;spacingLeft=6;" parent="C-vyLk0tnHw3VtMMgP7b-9" vertex="1">
          <mxGeometry x="30" width="220" height="20" as="geometry">
            <mxRectangle width="220" height="20" as="alternateBounds" />
          </mxGeometry>
        </mxCell>
        <mxCell id="BuEpBqLIDgKgEN5BL7GY-7" style="edgeStyle=orthogonalEdgeStyle;rounded=0;orthogonalLoop=1;jettySize=auto;html=1;endArrow=oval;endFill=1;targetPerimeterSpacing=6;endSize=12;startArrow=ERone;startFill=0;startSize=12;sourcePerimeterSpacing=0;" parent="1" source="C-vyLk0tnHw3VtMMgP7b-23" target="BuEpBqLIDgKgEN5BL7GY-6" edge="1">
          <mxGeometry relative="1" as="geometry">
            <mxPoint x="480" y="320" as="targetPoint" />
          </mxGeometry>
        </mxCell>
        <mxCell id="C-vyLk0tnHw3VtMMgP7b-23" value="Personas" style="shape=table;startSize=30;container=1;collapsible=1;childLayout=tableLayout;fixedRows=1;rowLines=0;fontStyle=1;align=center;resizeLast=1;" parent="1" vertex="1">
          <mxGeometry x="355" width="250" height="160" as="geometry" />
        </mxCell>
        <mxCell id="C-vyLk0tnHw3VtMMgP7b-24" value="" style="shape=partialRectangle;collapsible=0;dropTarget=0;pointerEvents=0;fillColor=none;points=[[0,0.5],[1,0.5]];portConstraint=eastwest;top=0;left=0;right=0;bottom=1;" parent="C-vyLk0tnHw3VtMMgP7b-23" vertex="1">
          <mxGeometry y="30" width="250" height="30" as="geometry" />
        </mxCell>
        <mxCell id="C-vyLk0tnHw3VtMMgP7b-25" value="PK" style="shape=partialRectangle;overflow=hidden;connectable=0;fillColor=none;top=0;left=0;bottom=0;right=0;fontStyle=1;" parent="C-vyLk0tnHw3VtMMgP7b-24" vertex="1">
          <mxGeometry width="30" height="30" as="geometry">
            <mxRectangle width="30" height="30" as="alternateBounds" />
          </mxGeometry>
        </mxCell>
        <mxCell id="C-vyLk0tnHw3VtMMgP7b-26" value="id_persona int(4) NOT NULL " style="shape=partialRectangle;overflow=hidden;connectable=0;fillColor=none;top=0;left=0;bottom=0;right=0;align=left;spacingLeft=6;fontStyle=5;" parent="C-vyLk0tnHw3VtMMgP7b-24" vertex="1">
          <mxGeometry x="30" width="220" height="30" as="geometry">
            <mxRectangle width="220" height="30" as="alternateBounds" />
          </mxGeometry>
        </mxCell>
        <mxCell id="C-vyLk0tnHw3VtMMgP7b-27" value="" style="shape=partialRectangle;collapsible=0;dropTarget=0;pointerEvents=0;fillColor=none;points=[[0,0.5],[1,0.5]];portConstraint=eastwest;top=0;left=0;right=0;bottom=0;" parent="C-vyLk0tnHw3VtMMgP7b-23" vertex="1">
          <mxGeometry y="60" width="250" height="100" as="geometry" />
        </mxCell>
        <mxCell id="C-vyLk0tnHw3VtMMgP7b-28" value="" style="shape=partialRectangle;overflow=hidden;connectable=0;fillColor=none;top=0;left=0;bottom=0;right=0;" parent="C-vyLk0tnHw3VtMMgP7b-27" vertex="1">
          <mxGeometry width="30" height="100" as="geometry">
            <mxRectangle width="30" height="100" as="alternateBounds" />
          </mxGeometry>
        </mxCell>
        <mxCell id="C-vyLk0tnHw3VtMMgP7b-29" value="username char (20) NOT NULL&#xa;nom VARCHAR(50) NOT NULL&#xa;password char (20) NOT NULL&#xa;telefono VARCHAR(14)&#xa;id_Admin int(1) Default 0&#xa;" style="shape=partialRectangle;overflow=hidden;connectable=0;fillColor=none;top=0;left=0;bottom=0;right=0;align=left;spacingLeft=6;" parent="C-vyLk0tnHw3VtMMgP7b-27" vertex="1">
          <mxGeometry x="30" width="220" height="100" as="geometry">
            <mxRectangle width="220" height="100" as="alternateBounds" />
          </mxGeometry>
        </mxCell>
        <mxCell id="BuEpBqLIDgKgEN5BL7GY-6" value="&lt;div&gt;Reserva&lt;/div&gt;" style="rhombus;whiteSpace=wrap;html=1;" parent="1" vertex="1">
          <mxGeometry x="390" y="330" width="180" height="80" as="geometry" />
        </mxCell>
        <mxCell id="BuEpBqLIDgKgEN5BL7GY-11" value="(1,N&lt;span style=&quot;background-color: initial;&quot;&gt;)&lt;/span&gt;" style="text;html=1;align=center;verticalAlign=middle;resizable=0;points=[];autosize=1;strokeColor=none;fillColor=none;" parent="1" vertex="1">
          <mxGeometry x="485" y="168" width="50" height="30" as="geometry" />
        </mxCell>
        <mxCell id="BuEpBqLIDgKgEN5BL7GY-12" value="(1,N&lt;span style=&quot;background-color: initial;&quot;&gt;)&lt;/span&gt;" style="text;html=1;align=center;verticalAlign=middle;resizable=0;points=[];autosize=1;strokeColor=none;fillColor=none;" parent="1" vertex="1">
          <mxGeometry x="420" y="590" width="50" height="30" as="geometry" />
        </mxCell>
        <mxCell id="BuEpBqLIDgKgEN5BL7GY-35" value="&lt;span style=&quot;font-weight: 700; text-align: left; text-wrap-mode: nowrap; text-decoration-line: underline;&quot;&gt;id_Reserva int&lt;/span&gt;&lt;span style=&quot;text-align: left; text-wrap-mode: nowrap;&quot;&gt;(6)&lt;/span&gt;&lt;span style=&quot;font-weight: 700; text-align: left; text-wrap-mode: nowrap; text-decoration-line: underline;&quot;&gt;&amp;nbsp;NOT NULL&lt;/span&gt;" style="html=1;whiteSpace=wrap;" parent="1" vertex="1">
          <mxGeometry x="655" y="320" width="195" height="20" as="geometry" />
        </mxCell>
        <mxCell id="BuEpBqLIDgKgEN5BL7GY-44" style="edgeStyle=orthogonalEdgeStyle;rounded=0;orthogonalLoop=1;jettySize=auto;html=1;entryX=1;entryY=0.5;entryDx=0;entryDy=0;endArrow=none;endFill=0;exitX=0;exitY=0.75;exitDx=0;exitDy=0;" parent="1" source="BuEpBqLIDgKgEN5BL7GY-49" target="BuEpBqLIDgKgEN5BL7GY-6" edge="1">
          <mxGeometry relative="1" as="geometry">
            <mxPoint x="610" y="370" as="sourcePoint" />
          </mxGeometry>
        </mxCell>
        <mxCell id="BuEpBqLIDgKgEN5BL7GY-41" value="&lt;span style=&quot;font-weight: 700; text-wrap-mode: nowrap;&quot;&gt;PK&lt;/span&gt;" style="html=1;whiteSpace=wrap;" parent="1" vertex="1">
          <mxGeometry x="620" y="320" width="35" height="20" as="geometry" />
        </mxCell>
        <mxCell id="BuEpBqLIDgKgEN5BL7GY-43" value="" style="html=1;whiteSpace=wrap;" parent="1" vertex="1">
          <mxGeometry x="620" y="430" width="35" height="60" as="geometry" />
        </mxCell>
        <mxCell id="BuEpBqLIDgKgEN5BL7GY-45" value="&lt;div&gt;&lt;span style=&quot;text-align: left; text-wrap-mode: nowrap; background-color: initial;&quot;&gt;n_Personas int&lt;/span&gt;&lt;span style=&quot;text-align: left; text-wrap-mode: nowrap; background-color: initial;&quot;&gt;(2)&lt;/span&gt;&lt;span style=&quot;background-color: initial; text-align: left; text-wrap-mode: nowrap;&quot;&gt;&amp;nbsp;Default 1&lt;br&gt;&lt;/span&gt;&lt;font&gt;&lt;span style=&quot;text-align: left; text-wrap: nowrap;&quot;&gt;Fecha_hora date()&amp;nbsp;&lt;/span&gt;&lt;span style=&quot;background-color: transparent; font-family: Arial, sans-serif; white-space-collapse: preserve;&quot;&gt;DATE DEFAULT &#39;0000-00-00&#39;&lt;/span&gt;&lt;/font&gt;&lt;br style=&quot;padding: 0px; margin: 0px; text-align: left; text-wrap: nowrap;&quot;&gt;&lt;/div&gt;" style="html=1;whiteSpace=wrap;" parent="1" vertex="1">
          <mxGeometry x="655" y="430" width="195" height="60" as="geometry" />
        </mxCell>
        <mxCell id="BuEpBqLIDgKgEN5BL7GY-46" value="&lt;span style=&quot;text-wrap-mode: nowrap;&quot;&gt;FK2&lt;/span&gt;" style="html=1;whiteSpace=wrap;" parent="1" vertex="1">
          <mxGeometry x="620" y="370" width="35" height="30" as="geometry" />
        </mxCell>
        <mxCell id="BuEpBqLIDgKgEN5BL7GY-47" value="&lt;span style=&quot;text-align: left; text-wrap-mode: nowrap;&quot;&gt;id_Personas int&lt;/span&gt;&lt;span style=&quot;text-align: left; text-wrap-mode: nowrap;&quot;&gt;(4)&lt;/span&gt;&lt;span style=&quot;text-align: left; text-wrap-mode: nowrap;&quot;&gt;&amp;nbsp;NOT NULL&lt;/span&gt;" style="html=1;whiteSpace=wrap;" parent="1" vertex="1">
          <mxGeometry x="655" y="370" width="195" height="30" as="geometry" />
        </mxCell>
        <mxCell id="BuEpBqLIDgKgEN5BL7GY-49" value="&lt;span style=&quot;text-wrap-mode: nowrap;&quot;&gt;FK1&lt;/span&gt;" style="html=1;whiteSpace=wrap;" parent="1" vertex="1">
          <mxGeometry x="620" y="340" width="35" height="30" as="geometry" />
        </mxCell>
        <mxCell id="BuEpBqLIDgKgEN5BL7GY-50" value="&lt;span style=&quot;text-align: left; text-wrap-mode: nowrap;&quot;&gt;id_Experiencia int(4) NOT NULL&lt;/span&gt;" style="html=1;whiteSpace=wrap;" parent="1" vertex="1">
          <mxGeometry x="655" y="340" width="195" height="30" as="geometry" />
        </mxCell>
        <mxCell id="BuEpBqLIDgKgEN5BL7GY-51" value="(N,M&lt;span style=&quot;background-color: initial;&quot;&gt;)&lt;/span&gt;" style="text;html=1;align=center;verticalAlign=middle;resizable=0;points=[];autosize=1;strokeColor=none;fillColor=none;" parent="1" vertex="1">
          <mxGeometry x="485" y="300" width="50" height="30" as="geometry" />
        </mxCell>
        <mxCell id="kHueLTW2PZ0l7G09IQr8-1" value="(N,M&lt;span style=&quot;background-color: initial;&quot;&gt;)&lt;/span&gt;" style="text;html=1;align=center;verticalAlign=middle;resizable=0;points=[];autosize=1;strokeColor=none;fillColor=none;" parent="1" vertex="1">
          <mxGeometry x="485" y="420" width="50" height="30" as="geometry" />
        </mxCell>
        <mxCell id="kHueLTW2PZ0l7G09IQr8-11" style="edgeStyle=orthogonalEdgeStyle;rounded=0;orthogonalLoop=1;jettySize=auto;html=1;exitX=0;exitY=0.5;exitDx=0;exitDy=0;startSize=5;endArrow=oval;endFill=1;strokeColor=default;endSize=16;targetPerimeterSpacing=0;" parent="1" source="BuEpBqLIDgKgEN5BL7GY-6" edge="1">
          <mxGeometry relative="1" as="geometry">
            <mxPoint x="290" y="370" as="targetPoint" />
          </mxGeometry>
        </mxCell>
        <mxCell id="kHueLTW2PZ0l7G09IQr8-14" value="&lt;span style=&quot;font-weight: 700; text-align: left; text-wrap-mode: nowrap; text-decoration-line: underline;&quot;&gt;idAccio int&lt;/span&gt;&lt;span style=&quot;text-align: left; text-wrap-mode: nowrap;&quot;&gt;(6)&lt;/span&gt;&lt;span style=&quot;font-weight: 700; text-align: left; text-wrap-mode: nowrap; text-decoration-line: underline;&quot;&gt;&amp;nbsp;NOT NULL&lt;/span&gt;" style="html=1;whiteSpace=wrap;" parent="1" vertex="1">
          <mxGeometry x="75" y="320" width="195" height="20" as="geometry" />
        </mxCell>
        <mxCell id="kHueLTW2PZ0l7G09IQr8-15" value="&lt;span style=&quot;font-weight: 700; text-wrap-mode: nowrap;&quot;&gt;PK&lt;/span&gt;" style="html=1;whiteSpace=wrap;" parent="1" vertex="1">
          <mxGeometry x="40" y="320" width="35" height="20" as="geometry" />
        </mxCell>
        <mxCell id="kHueLTW2PZ0l7G09IQr8-16" value="" style="html=1;whiteSpace=wrap;" parent="1" vertex="1">
          <mxGeometry x="40" y="370" width="35" height="110" as="geometry" />
        </mxCell>
        <mxCell id="kHueLTW2PZ0l7G09IQr8-17" value="&lt;div&gt;&lt;font&gt;&lt;span style=&quot;text-align: left; text-wrap: nowrap;&quot;&gt;Reserva_cancelada&amp;nbsp;&lt;/span&gt;&lt;span style=&quot;background-color: transparent; font-family: Arial, sans-serif; white-space-collapse: preserve; text-indent: 36pt;&quot;&gt;&amp;nbsp;ENUM(&#39;SI&#39;, &#39;NO&#39;) NOT NULL,&lt;/span&gt;&lt;/font&gt;&lt;/div&gt;&lt;div&gt;&lt;font&gt;&lt;span style=&quot;text-wrap: nowrap; text-align: left;&quot;&gt;Reserva_modificada ENU&lt;/span&gt;&lt;span style=&quot;white-space-collapse: preserve; background-color: transparent; font-family: Arial, sans-serif; text-indent: 36pt;&quot;&gt;M(&#39;SI&#39;, &#39;NO&#39;) NOT NULL,&lt;/span&gt;&lt;span style=&quot;background-color: transparent; font-family: Arial, sans-serif; white-space-collapse: preserve; text-indent: 36pt;&quot;&gt;&lt;/span&gt;&lt;/font&gt;&lt;/div&gt;&lt;div&gt;&lt;span style=&quot;background-color: transparent; font-family: Arial, sans-serif; white-space-collapse: preserve; text-indent: 36pt;&quot;&gt;&lt;font&gt;modalidad char(10) NOTNULL,&lt;/font&gt;&lt;/span&gt;&lt;/div&gt;&lt;div&gt;&lt;span style=&quot;text-align: left; text-wrap: nowrap;&quot;&gt;Tipo_Accion char(10) NOT NULL&lt;/span&gt;&lt;br style=&quot;padding: 0px; margin: 0px; text-align: left; text-wrap: nowrap;&quot;&gt;&lt;/div&gt;" style="html=1;whiteSpace=wrap;" parent="1" vertex="1">
          <mxGeometry x="75" y="370" width="195" height="110" as="geometry" />
        </mxCell>
        <mxCell id="kHueLTW2PZ0l7G09IQr8-20" value="&lt;span style=&quot;text-wrap-mode: nowrap;&quot;&gt;FK1&lt;/span&gt;" style="html=1;whiteSpace=wrap;" parent="1" vertex="1">
          <mxGeometry x="40" y="340" width="35" height="30" as="geometry" />
        </mxCell>
        <mxCell id="kHueLTW2PZ0l7G09IQr8-21" value="&lt;span style=&quot;font-weight: 700; text-align: left; text-wrap: nowrap; text-decoration-line: underline;&quot;&gt;idReserva int(6) NOT NULL&lt;/span&gt;" style="html=1;whiteSpace=wrap;" parent="1" vertex="1">
          <mxGeometry x="75" y="340" width="195" height="30" as="geometry" />
        </mxCell>
        <mxCell id="kHueLTW2PZ0l7G09IQr8-22" value="&lt;div style=&quot;text-align: left;&quot;&gt;&lt;span style=&quot;background-color: initial;&quot;&gt;&lt;b&gt;&lt;u&gt;Accio&lt;/u&gt;&lt;/b&gt;&lt;/span&gt;&lt;/div&gt;" style="html=1;whiteSpace=wrap;" parent="1" vertex="1">
          <mxGeometry x="40" y="300" width="230" height="20" as="geometry" />
        </mxCell>
        <mxCell id="20aVv19KNS9ounUFqN0J-1" value="(1,N&lt;span style=&quot;background-color: initial;&quot;&gt;)&lt;/span&gt;" style="text;html=1;align=center;verticalAlign=middle;resizable=0;points=[];autosize=1;strokeColor=none;fillColor=none;" parent="1" vertex="1">
          <mxGeometry x="280" y="330" width="50" height="30" as="geometry" />
        </mxCell>
        <mxCell id="20aVv19KNS9ounUFqN0J-2" value="(0,1&lt;span style=&quot;background-color: initial;&quot;&gt;)&lt;/span&gt;" style="text;html=1;align=center;verticalAlign=middle;resizable=0;points=[];autosize=1;strokeColor=none;fillColor=none;" parent="1" vertex="1">
          <mxGeometry x="355" y="330" width="50" height="30" as="geometry" />
        </mxCell>
        <mxCell id="By5NCZBhY-uBjwnhlZ6_-1" value="&lt;span style=&quot;text-wrap-mode: nowrap;&quot;&gt;FK3&lt;/span&gt;" style="html=1;whiteSpace=wrap;" vertex="1" parent="1">
          <mxGeometry x="620" y="400" width="35" height="30" as="geometry" />
        </mxCell>
        <mxCell id="By5NCZBhY-uBjwnhlZ6_-2" value="&lt;span style=&quot;text-wrap-mode: nowrap; text-decoration-line: underline; font-weight: 700; text-align: left;&quot;&gt;idAccio int&lt;/span&gt;&lt;span style=&quot;text-wrap-mode: nowrap; text-align: left;&quot;&gt;(6)&lt;/span&gt;&lt;span style=&quot;text-wrap-mode: nowrap; text-decoration-line: underline; font-weight: 700; text-align: left;&quot;&gt;&amp;nbsp;NOT NULL&lt;/span&gt;" style="html=1;whiteSpace=wrap;" vertex="1" parent="1">
          <mxGeometry x="655" y="400" width="195" height="30" as="geometry" />
        </mxCell>
      </root>
    </mxGraphModel>
  </diagram>
</mxfile>
